<?xml version="1.0" encoding="UTF-8" standalone="no" ?>
<!DOCTYPE svg PUBLIC "-//W3C//DTD SVG 1.1//EN" "http://www.w3.org/Graphics/SVG/1.1/DTD/svg11.dtd">
<svg xmlns="http://www.w3.org/2000/svg" xmlns:xlink="http://www.w3.org/1999/xlink" version="1.1" width="640" height="480" viewBox="0 0 640 480" xml:space="preserve">
<desc>Created with Fabric.js 3.6.6</desc>
<defs>
</defs>
<g transform="matrix(1 0 0 1 333.5 237.5)"  >
<path style="stroke: none; stroke-width: 1; stroke-dasharray: none; stroke-linecap: butt; stroke-dashoffset: 0; stroke-linejoin: miter; stroke-miterlimit: 4; fill: rgb(255,255,255); fill-rule: nonzero; opacity: 1;"  transform=" translate(-224, -256)" d="M 0 96 C 0 78.3 14.3 64 32 64 H 416 c 17.7 0 32 14.3 32 32 s -14.3 32 -32 32 H 32 C 14.3 128 0 113.7 0 96 z M 0 256 c 0 -17.7 14.3 -32 32 -32 H 416 c 17.7 0 32 14.3 32 32 s -14.3 32 -32 32 H 32 c -17.7 0 -32 -14.3 -32 -32 z M 448 416 c 0 17.7 -14.3 32 -32 32 H 32 c -17.7 0 -32 -14.3 -32 -32 s 14.3 -32 32 -32 H 416 c 17.7 0 32 14.3 32 32 z" stroke-linecap="round" />
</g>
</svg>