<?xml version="1.0" encoding="UTF-8" standalone="no" ?>
<!DOCTYPE svg PUBLIC "-//W3C//DTD SVG 1.1//EN" "http://www.w3.org/Graphics/SVG/1.1/DTD/svg11.dtd">
<svg xmlns="http://www.w3.org/2000/svg" xmlns:xlink="http://www.w3.org/1999/xlink" version="1.1" width="640" height="480" viewBox="0 0 640 480" xml:space="preserve">
<desc>Created with Fabric.js 3.6.6</desc>
<defs>
</defs>
<g transform="matrix(0.9 0 0 0.9 325.71 240.93)"  >
<path style="stroke: none; stroke-width: 1; stroke-dasharray: none; stroke-linecap: butt; stroke-dashoffset: 0; stroke-linejoin: miter; stroke-miterlimit: 4; fill: rgb(255,255,255); fill-rule: nonzero; opacity: 1;"  transform=" translate(-288, -252.22)" d="M 408 120 c 0 54.6 -73.1 151.9 -105.2 192 c -7.7 9.6 -22 9.6 -29.6 0 C 241.1 271.9 168 174.6 168 120 C 168 53.7 221.7 0 288 0 s 120 53.7 120 120 z m 8 80.4 c 3.5 -6.9 6.7 -13.8 9.6 -20.6 c 0.5 -1.2 1 -2.5 1.5 -3.7 l 116 -46.4 C 558.9 123.4 576 135 576 152 V 422.8 c 0 9.8 -6 18.6 -15.1 22.3 L 416 503 V 200.4 z M 137.6 138.3 c 2.4 14.1 7.2 28.3 12.8 41.5 c 2.9 6.8 6.1 13.7 9.6 20.6 V 451.8 L 32.9 502.7 C 17.1 509 0 497.4 0 480.4 V 209.6 c 0 -9.8 6 -18.6 15.1 -22.3 l 122.6 -49 z M 327.8 332 c 13.9 -17.4 35.7 -45.7 56.2 -77 V 504.3 L 192 449.4 V 255 c 20.5 31.3 42.3 59.6 56.2 77 c 20.5 25.6 59.1 25.6 79.6 0 z M 288 152 a 40 40 0 1 0 0 -80 a 40 40 0 1 0 0 80 z" stroke-linecap="round" />
</g>
</svg>