<?xml version="1.0" encoding="UTF-8" standalone="no" ?>
<!DOCTYPE svg PUBLIC "-//W3C//DTD SVG 1.1//EN" "http://www.w3.org/Graphics/SVG/1.1/DTD/svg11.dtd">
<svg xmlns="http://www.w3.org/2000/svg" xmlns:xlink="http://www.w3.org/1999/xlink" version="1.1" width="640" height="480" viewBox="0 0 640 480" xml:space="preserve">
<desc>Created with Fabric.js 3.6.6</desc>
<defs>
</defs>
<g transform="matrix(0.9 0 0 0.9 330.93 242.43)"  >
<path style="stroke: none; stroke-width: 1; stroke-dasharray: none; stroke-linecap: butt; stroke-dashoffset: 0; stroke-linejoin: miter; stroke-miterlimit: 4; fill: rgb(255,255,255); fill-rule: nonzero; opacity: 1;"  transform=" translate(-224, -256)" d="M 96 0 C 43 0 0 43 0 96 V 352 c 0 48 35.2 87.7 81.1 94.9 l -46 46 C 28.1 499.9 33.1 512 43 512 H 82.7 c 8.5 0 16.6 -3.4 22.6 -9.4 L 160 448 H 288 l 54.6 54.6 c 6 6 14.1 9.4 22.6 9.4 H 405 c 10 0 15 -12.1 7.9 -19.1 l -46 -46 c 46 -7.1 81.1 -46.9 81.1 -94.9 V 96 c 0 -53 -43 -96 -96 -96 H 96 z M 64 96 c 0 -17.7 14.3 -32 32 -32 H 352 c 17.7 0 32 14.3 32 32 v 96 c 0 17.7 -14.3 32 -32 32 H 96 c -17.7 0 -32 -14.3 -32 -32 V 96 z M 224 288 a 48 48 0 1 1 0 96 a 48 48 0 1 1 0 -96 z" stroke-linecap="round" />
</g>
</svg>