<?xml version="1.0" encoding="UTF-8" standalone="no" ?>
<!DOCTYPE svg PUBLIC "-//W3C//DTD SVG 1.1//EN" "http://www.w3.org/Graphics/SVG/1.1/DTD/svg11.dtd">
<svg xmlns="http://www.w3.org/2000/svg" xmlns:xlink="http://www.w3.org/1999/xlink" version="1.1" width="640" height="480" viewBox="0 0 640 480" xml:space="preserve">
<desc>Created with Fabric.js 3.6.6</desc>
<defs>
</defs>
<g transform="matrix(0.9 0 0 0.9 341.76 242.75)"  >
<path style="stroke: none; stroke-width: 1; stroke-dasharray: none; stroke-linecap: butt; stroke-dashoffset: 0; stroke-linejoin: miter; stroke-miterlimit: 4; fill: rgb(255,255,255); fill-rule: nonzero; opacity: 1;"  transform=" translate(-160, -255.99)" d="M 160 48 a 48 48 0 1 1 96 0 a 48 48 0 1 1 -96 0 z M 126.5 199.3 c -1 0.4 -1.9 0.8 -2.9 1.2 l -8 3.5 c -16.4 7.3 -29 21.2 -34.7 38.2 l -2.6 7.8 c -5.6 16.8 -23.7 25.8 -40.5 20.2 s -25.8 -23.7 -20.2 -40.5 l 2.6 -7.8 c 11.4 -34.1 36.6 -61.9 69.4 -76.5 l 8 -3.5 c 20.8 -9.2 43.3 -14 66.1 -14 c 44.6 0 84.8 26.8 101.9 67.9 L 281 232.7 l 21.4 10.7 c 15.8 7.9 22.2 27.1 14.3 42.9 s -27.1 22.2 -42.9 14.3 L 247 287.3 c -10.3 -5.2 -18.4 -13.8 -22.8 -24.5 l -9.6 -23 l -19.3 65.5 l 49.5 54 c 5.4 5.9 9.2 13 11.2 20.8 l 23 92.1 c 4.3 17.1 -6.1 34.5 -23.3 38.8 s -34.5 -6.1 -38.8 -23.3 l -22 -88.1 l -70.7 -77.1 c -14.8 -16.1 -20.3 -38.6 -14.7 -59.7 l 16.9 -63.5 z M 68.7 398 l 25 -62.4 c 2.1 3 4.5 5.8 7 8.6 l 40.7 44.4 l -14.5 36.2 c -2.4 6 -6 11.5 -10.6 16.1 L 54.6 502.6 c -12.5 12.5 -32.8 12.5 -45.3 0 s -12.5 -32.8 0 -45.3 L 68.7 398 z" stroke-linecap="round" />
</g>
</svg>